<svg width="27" height="13" viewBox="0 0 27 13" fill="none" xmlns="http://www.w3.org/2000/svg">
<path d="M26.484 2.74183C25.3484 2.74183 24.4071 1.87745 24.4071 0.801204C24.4071 0.671595 24.279 0.578079 24.1425 0.578079H3.23289C3.09613 0.578079 2.98559 0.671595 2.98559 0.801204C2.98559 1.87769 2.12201 2.74769 0.986399 2.74769C0.849641 2.74769 0.799438 2.84706 0.799438 2.97644V10.0878C0.799438 10.2175 0.849641 10.3222 0.986399 10.3222C2.12201 10.3222 3.01576 11.2093 3.01576 12.2856C3.01576 12.4152 3.09613 12.5314 3.23289 12.5314H24.1425C24.2793 12.5314 24.3898 12.4152 24.3898 12.2856C24.3898 11.2093 25.3486 10.3281 26.4842 10.3281C26.621 10.3281 26.7664 10.2172 26.7664 10.0878V2.9762C26.7662 2.84706 26.6207 2.74183 26.484 2.74183ZM5.16679 8.27683C4.21814 8.27683 3.44928 7.54816 3.44928 6.64909C3.44928 5.75027 4.21814 5.02136 5.16679 5.02136C6.11545 5.02136 6.88431 5.75027 6.88431 6.64909C6.88431 7.54792 6.11545 8.27683 5.16679 8.27683ZM13.8167 11.0938C11.6938 11.0938 9.97336 8.99894 9.97336 6.41448C9.97336 3.83003 11.6938 1.73542 13.8167 1.73542C15.939 1.73542 17.66 3.83027 17.66 6.41448C17.66 8.9987 15.939 11.0938 13.8167 11.0938ZM22.4537 8.27683C21.5056 8.27683 20.7362 7.54816 20.7362 6.64909C20.7362 5.75027 21.5056 5.02136 22.4537 5.02136C23.4024 5.02136 24.1712 5.75027 24.1712 6.64909C24.1715 7.54792 23.4024 8.27683 22.4537 8.27683Z" fill="white"/>
</svg>
